<svg width="18" height="20" viewBox="0 0 18 20" fill="none" xmlns="http://www.w3.org/2000/svg">
<path d="M7.30063 1.97744C7.57303 1.30648 8.23126 0.833332 9 0.833332C9.76874 0.833332 10.427 1.30648 10.6994 1.97744C13.4185 2.72232 15.4167 5.21114 15.4167 8.16667V12.4725L17.096 14.9915C17.2836 15.2728 17.3011 15.6345 17.1415 15.9325C16.982 16.2306 16.6714 16.4167 16.3333 16.4167H12.1758C11.9534 17.9715 10.6163 19.1667 9 19.1667C7.3837 19.1667 6.04656 17.9715 5.82416 16.4167H1.66667C1.32861 16.4167 1.01798 16.2306 0.858466 15.9325C0.698949 15.6345 0.716432 15.2728 0.903955 14.9915L2.58333 12.4725V8.16667C2.58333 5.21114 4.58151 2.72232 7.30063 1.97744ZM7.70324 16.4167C7.892 16.9507 8.40132 17.3333 9 17.3333C9.59869 17.3333 10.108 16.9507 10.2968 16.4167H7.70324ZM9 3.58333C6.4687 3.58333 4.41667 5.63536 4.41667 8.16667V12.75C4.41667 12.931 4.3631 13.1079 4.26271 13.2585L3.37948 14.5833H14.6205L13.7373 13.2585C13.6369 13.1079 13.5833 12.931 13.5833 12.75V8.16667C13.5833 5.63536 11.5313 3.58333 9 3.58333Z" fill="#1C1D22"/>
</svg>
