<svg width="12" height="10" viewBox="0 0 12 10" fill="none" xmlns="http://www.w3.org/2000/svg">
<path d="M0.666687 1.11813C0.666687 0.684889 0.965164 0.333679 1.33335 0.333679H2.00002C2.36821 0.333679 2.66669 0.684889 2.66669 1.11813C2.66669 1.55137 2.36821 1.90258 2.00002 1.90258H1.33335C0.965164 1.90258 0.666687 1.55137 0.666687 1.11813ZM4.00002 1.11813C4.00002 0.684889 4.2985 0.333679 4.66669 0.333679L10.6667 0.333679C11.0349 0.333679 11.3334 0.684889 11.3334 1.11813C11.3334 1.55137 11.0349 1.90258 10.6667 1.90258L4.66669 1.90258C4.2985 1.90258 4.00002 1.55137 4.00002 1.11813ZM0.666687 5.04037C0.666687 4.60713 0.965164 4.25592 1.33335 4.25592H2.00002C2.36821 4.25592 2.66669 4.60713 2.66669 5.04037C2.66669 5.47361 2.36821 5.82482 2.00002 5.82482H1.33335C0.965164 5.82482 0.666687 5.47361 0.666687 5.04037ZM4.00002 5.04037C4.00002 4.60713 4.2985 4.25592 4.66669 4.25592H10.6667C11.0349 4.25592 11.3334 4.60713 11.3334 5.04037C11.3334 5.47361 11.0349 5.82482 10.6667 5.82482H4.66669C4.2985 5.82482 4.00002 5.47361 4.00002 5.04037ZM0.666687 8.96262C0.666687 8.52938 0.965164 8.17817 1.33335 8.17817H2.00002C2.36821 8.17817 2.66669 8.52938 2.66669 8.96262C2.66669 9.39586 2.36821 9.74707 2.00002 9.74707H1.33335C0.965164 9.74707 0.666687 9.39586 0.666687 8.96262ZM4.00002 8.96262C4.00002 8.52938 4.2985 8.17817 4.66669 8.17817H10.6667C11.0349 8.17817 11.3334 8.52938 11.3334 8.96262C11.3334 9.39586 11.0349 9.74707 10.6667 9.74707H4.66669C4.2985 9.74707 4.00002 9.39586 4.00002 8.96262Z" fill="#1C1D22"/>
</svg>
