<svg width="286" height="302" viewBox="0 0 286 302" fill="none" xmlns="http://www.w3.org/2000/svg">
<path d="M163.514 294.529C163.265 294.529 163.016 294.463 162.793 294.334L41.9318 223.237C41.589 223.036 41.3478 222.701 41.264 222.312C41.1802 221.924 41.2615 221.52 41.49 221.195L138.834 82.8622C139.286 82.2198 140.172 82.0649 140.814 82.5168C141.457 82.9688 141.612 83.8549 141.16 84.4973L44.7063 221.569L162.22 290.697L166.036 220.074C166.079 219.29 166.739 218.696 167.532 218.731C168.316 218.774 168.915 219.445 168.875 220.227L164.932 293.183C164.904 293.678 164.622 294.125 164.183 294.358C163.974 294.473 163.743 294.528 163.512 294.528L163.514 294.529ZM168.61 200.279C168.584 200.279 168.559 200.279 168.531 200.277C167.746 200.233 167.147 199.563 167.188 198.781L176.044 34.9356L153.434 67.0651C152.982 67.7074 152.096 67.8624 151.453 67.4104C150.811 66.9584 150.656 66.0723 151.108 65.4299L176.57 29.2509C176.935 28.7329 177.598 28.5171 178.197 28.7253C178.797 28.9335 179.185 29.5124 179.152 30.1446L170.027 198.937C169.986 199.693 169.359 200.28 168.61 200.28L168.61 200.279Z" fill="#333333"/>
<path d="M277.264 223.432H197.555C196.77 223.432 196.133 222.795 196.133 222.01C196.133 221.226 196.77 220.588 197.555 220.588H275.022L219.66 102.945L61.2548 163.03C60.5185 163.309 59.6984 162.938 59.4216 162.204C59.1423 161.471 59.5131 160.648 60.2468 160.371L219.887 99.8199C220.58 99.5584 221.359 99.8707 221.677 100.544L278.552 221.404C278.76 221.844 278.727 222.362 278.466 222.773C278.207 223.184 277.755 223.433 277.267 223.433L277.264 223.432ZM176.228 223.432H42.6531C42.1783 223.432 41.734 223.194 41.4699 222.8L13.0325 180.144C12.7912 179.783 12.7303 179.334 12.8623 178.92C12.9944 178.509 13.3067 178.178 13.7129 178.024L40.307 167.936C41.0433 167.656 41.8634 168.027 42.1402 168.761C42.4195 169.495 42.0488 170.317 41.315 170.594L16.3888 180.047L43.4145 220.588H176.229C177.014 220.588 177.651 221.225 177.651 222.01C177.648 222.794 177.011 223.432 176.226 223.432L176.228 223.432Z" fill="#333333"/>
<path d="M14.2154 180.779C13.8803 180.779 13.5477 180.66 13.2836 180.431C12.8875 180.091 12.7123 179.558 12.8266 179.047L41.2641 51.0755C41.3478 50.6946 41.5865 50.3645 41.9217 50.164C42.2568 49.9634 42.6605 49.91 43.0337 50.0141L107.501 68.0647C108.257 68.2754 108.699 69.0599 108.486 69.8166C108.275 70.5733 107.488 71.0151 106.734 70.8017L43.7119 53.1555L16.1707 177.085L90.5567 148.871C91.2905 148.591 92.1132 148.962 92.3899 149.696C92.6692 150.43 92.2985 151.252 91.5648 151.529L14.7218 180.683C14.5567 180.744 14.3866 180.774 14.2165 180.774L14.2154 180.779ZM111.007 144.067C110.433 144.067 109.892 143.717 109.676 143.15C109.397 142.417 109.768 141.594 110.502 141.317L215.841 101.36L127.278 76.561C126.521 76.3503 126.08 75.5657 126.293 74.8091C126.504 74.0524 127.288 73.6106 128.045 73.8239L220.774 99.7882C221.366 99.9532 221.784 100.479 221.812 101.093C221.84 101.708 221.47 102.269 220.896 102.487L111.514 143.978C111.344 144.036 111.171 144.067 111.006 144.067L111.007 144.067Z" fill="#333333"/>
<path d="M270.153 301.64C261.528 301.64 254.513 294.625 254.513 286C254.513 277.375 261.528 270.359 270.153 270.359C278.778 270.359 285.793 277.375 285.793 286C285.793 294.625 278.778 301.64 270.153 301.64ZM270.153 273.202C263.097 273.202 257.356 278.943 257.356 286C257.356 293.056 263.097 298.797 270.153 298.797C277.21 298.797 282.95 293.056 282.95 286C282.95 278.943 277.21 273.202 270.153 273.202Z" fill="#333333"/>
<path d="M99.5281 31.4807C90.9026 31.4807 83.8878 24.4652 83.8878 15.8404C83.8878 7.21553 90.9033 0.200073 99.5281 0.200073C108.153 0.200073 115.168 7.21553 115.168 15.8404C115.168 24.4652 108.153 31.4807 99.5281 31.4807ZM99.5281 3.04317C92.4724 3.04317 86.7309 8.78398 86.7309 15.8404C86.7309 22.8968 92.4717 28.6376 99.5281 28.6376C106.585 28.6376 112.325 22.8968 112.325 15.8404C112.325 8.78398 106.585 3.04317 99.5281 3.04317Z" fill="#333333"/>
<path d="M234.605 202.106C234.229 202.106 233.866 201.948 233.594 201.687C233.33 201.423 233.183 201.055 233.183 200.684C233.183 200.305 233.333 199.937 233.594 199.673C234.127 199.148 235.08 199.148 235.605 199.673C235.874 199.942 236.024 200.305 236.024 200.684C236.024 201.054 235.874 201.423 235.605 201.687C235.344 201.948 234.981 202.106 234.605 202.106Z" fill="#333333"/>
<path d="M213.278 202.106C212.902 202.106 212.539 201.948 212.275 201.687C212.006 201.423 211.856 201.055 211.856 200.684C211.856 200.305 212.006 199.937 212.275 199.673C212.793 199.148 213.753 199.148 214.281 199.673C214.55 199.942 214.7 200.305 214.7 200.684C214.7 201.054 214.55 201.423 214.288 201.687C214.017 201.948 213.654 202.106 213.278 202.106H213.278Z" fill="#333333"/>
<path d="M191.951 202.106C191.576 202.106 191.212 201.948 190.941 201.687C190.677 201.423 190.529 201.055 190.529 200.684C190.529 200.305 190.679 199.945 190.941 199.673C191.474 199.148 192.426 199.148 192.952 199.673C193.221 199.942 193.371 200.305 193.371 200.684C193.371 201.054 193.221 201.423 192.959 201.687C192.69 201.948 192.327 202.106 191.951 202.106H191.951Z" fill="#333333"/>
<path d="M191.951 180.779C191.581 180.779 191.212 180.622 190.941 180.36C190.677 180.096 190.529 179.728 190.529 179.357C190.529 178.979 190.679 178.618 190.941 178.347C191.474 177.821 192.426 177.821 192.952 178.347C193.221 178.616 193.371 178.979 193.371 179.357C193.371 179.728 193.221 180.096 192.952 180.36C192.69 180.622 192.322 180.779 191.951 180.779Z" fill="#333333"/>
<path d="M191.951 159.453C191.576 159.453 191.212 159.295 190.948 159.034C190.679 158.769 190.529 158.401 190.529 158.031C190.529 157.652 190.679 157.292 190.941 157.02C191.474 156.494 192.426 156.494 192.952 157.02C193.221 157.289 193.371 157.652 193.371 158.031C193.371 158.401 193.221 158.769 192.959 159.034C192.69 159.295 192.327 159.453 191.951 159.453Z" fill="#333333"/>
<path d="M0 278.89H14.2188V293.109H0V278.89Z" fill="#333333"/>
<path d="M21.3265 278.89H35.5452V293.109H21.3265V278.89Z" fill="#333333"/>
<path d="M42.6532 278.89H56.8719V293.109H42.6532V278.89Z" fill="#333333"/>
<path d="M63.9797 278.89H78.1984V293.109H63.9797V278.89Z" fill="#333333"/>
</svg>
